<?xml version="1.0" encoding="UTF-8"?><svg id="Layer_2" xmlns="http://www.w3.org/2000/svg" viewBox="0 0 869.5 869.5"><defs><style>.cls-1{fill:#fff;}.cls-1,.cls-2{stroke:#000;stroke-miterlimit:10;stroke-width:18px;}.cls-2{fill:#dcff03;}</style></defs><g id="Layer_1-2"><g><path class="cls-2" d="m789.54,9H79.96C40.94,9,9,40.94,9,79.95v709.58c0,39.01,31.94,70.96,70.96,70.96h709.58c39.02,0,70.96-31.95,70.96-70.96V79.95c0-39.01-31.94-70.95-70.96-70.95h0Z"/><path class="cls-1" d="m647.62,186.36c19.62,0,35.48,15.9,35.48,35.48v106.48h-70.95v-70.96h-141.93v354.79h70.96v70.96h-212.88v-70.96h70.96v-354.79h-141.93v70.96h-70.95v-106.44c0-19.62,15.9-35.49,35.48-35.49l425.75-.03Z"/></g></g></svg>