<?xml version="1.0" encoding="UTF-8"?><svg id="Layer_2" xmlns="http://www.w3.org/2000/svg" viewBox="0 0 847.62 847.26"><defs><style>.cls-1{fill:#fff;}.cls-2,.cls-3{fill:#dcff03;}.cls-3{fill-rule:evenodd;}.cls-3,.cls-4{stroke:#000;stroke-miterlimit:10;stroke-width:18px;}.cls-4{fill:none;}</style></defs><g id="Layer_1-2"><g><path class="cls-3" d="m708.38,379.48h-240.6v-240.59c0-9.28-7.51-16.78-16.79-16.78H25.79c-9.27,0-16.79,7.51-16.79,16.78v425.22c0,9.27,7.52,16.79,16.79,16.79h240.58v240.58c0,9.27,7.52,16.79,16.79,16.79h425.23c9.27,0,16.79-7.52,16.79-16.79v-425.21c0-9.28-7.52-16.79-16.79-16.79h0ZM809.15,9h-254.45c-16.28,0-29.48,13.19-29.48,29.48v254.45c0,16.28,13.2,29.47,29.48,29.47h254.45c16.28,0,29.47-13.19,29.47-29.47V38.48c0-16.28-13.19-29.48-29.47-29.48Z"/><g><path class="cls-2" d="m691.59,413.04v391.65h-391.66v-240.54s.02-.04.02-.05c0-.02-.02-.04-.02-.05v-151.01h391.66Zm-29.09,56.94c2.19-2.19,2.19-5.73,0-7.92s-5.72-2.18-7.91,0l-50.65,50.65-50.65-50.65c-2.18-2.18-5.73-2.18-7.91,0l-50.65,50.65-50.65-50.65c-2.18-2.18-5.72-2.18-7.91,0l-50.65,50.65-50.64-50.65c-2.2-2.18-5.73-2.18-7.93,0-2.18,2.19-2.18,5.73,0,7.92l54.61,54.6c2.19,2.19,5.73,2.19,7.91,0l50.66-50.65,50.64,50.65c2.19,2.19,5.73,2.19,7.91,0l50.66-50.65,50.65,50.65c1.09,1.09,2.53,1.64,3.95,1.64s2.86-.55,3.96-1.64l54.6-54.6Zm0,114.06c2.19-2.19,2.19-5.73,0-7.91-2.18-2.19-5.72-2.19-7.91,0l-50.65,50.64-50.65-50.64c-2.18-2.19-5.73-2.19-7.91,0l-50.65,50.64-50.65-50.64c-2.18-2.19-5.72-2.19-7.91,0l-50.65,50.64-50.64-50.64c-2.2-2.19-5.73-2.19-7.93,0-2.18,2.18-2.18,5.72,0,7.91l54.61,54.61c2.19,2.18,5.73,2.18,7.91,0l50.66-50.66,50.64,50.66c2.19,2.18,5.73,2.18,7.91,0l50.66-50.66,50.65,50.66c1.09,1.08,2.53,1.63,3.95,1.63s2.86-.55,3.96-1.63l54.6-54.61Zm0,114.06c2.19-2.19,2.19-5.73,0-7.91-2.18-2.19-5.72-2.19-7.91,0l-50.65,50.64-50.65-50.64c-2.18-2.19-5.73-2.19-7.91,0l-50.65,50.64-50.65-50.64c-2.18-2.19-5.72-2.19-7.91,0l-50.65,50.64-50.64-50.64c-2.2-2.19-5.73-2.19-7.93,0-2.18,2.18-2.18,5.72,0,7.91l54.61,54.6c2.19,2.19,5.73,2.19,7.91,0l50.66-50.64,50.64,50.64c2.19,2.19,5.73,2.19,7.91,0l50.66-50.64,50.65,50.64c1.09,1.1,2.53,1.65,3.95,1.65s2.86-.55,3.96-1.65l54.6-54.6Z"/><g><path class="cls-4" d="m381.56,752.7c2.19,2.19,5.73,2.19,7.91,0l50.66-50.64,50.64,50.64c2.19,2.19,5.73,2.19,7.91,0l50.66-50.64,50.65,50.64c1.09,1.1,2.53,1.65,3.95,1.65s2.86-.55,3.96-1.65l54.6-54.6c2.19-2.19,2.19-5.73,0-7.91-2.18-2.19-5.72-2.19-7.91,0l-50.65,50.64-50.65-50.64c-2.18-2.19-5.73-2.19-7.91,0l-50.65,50.64-50.65-50.64c-2.18-2.19-5.72-2.19-7.91,0l-50.65,50.64-50.64-50.64c-2.2-2.19-5.73-2.19-7.93,0-2.18,2.18-2.18,5.72,0,7.91l54.61,54.6Z"/><path class="cls-4" d="m381.56,638.65c2.19,2.18,5.73,2.18,7.91,0l50.66-50.66,50.64,50.66c2.19,2.18,5.73,2.18,7.91,0l50.66-50.66,50.65,50.66c1.09,1.08,2.53,1.63,3.95,1.63s2.86-.55,3.96-1.63l54.6-54.61c2.19-2.19,2.19-5.73,0-7.91-2.18-2.19-5.72-2.19-7.91,0l-50.65,50.64-50.65-50.64c-2.18-2.19-5.73-2.19-7.91,0l-50.65,50.64-50.65-50.64c-2.18-2.19-5.72-2.19-7.91,0l-50.65,50.64-50.64-50.64c-2.2-2.19-5.73-2.19-7.93,0-2.18,2.18-2.18,5.72,0,7.91l54.61,54.61Z"/><path class="cls-4" d="m381.56,524.58c2.19,2.19,5.73,2.19,7.91,0l50.66-50.65,50.64,50.65c2.19,2.19,5.73,2.19,7.91,0l50.66-50.65,50.65,50.65c1.09,1.09,2.53,1.64,3.95,1.64s2.86-.55,3.96-1.64l54.6-54.6c2.19-2.19,2.19-5.73,0-7.92s-5.72-2.18-7.91,0l-50.65,50.65-50.65-50.65c-2.18-2.18-5.73-2.18-7.91,0l-50.65,50.65-50.65-50.65c-2.18-2.18-5.72-2.18-7.91,0l-50.65,50.65-50.64-50.65c-2.2-2.18-5.73-2.18-7.93,0-2.18,2.19-2.18,5.73,0,7.92l54.61,54.6Z"/></g></g><g><g><path class="cls-1" d="m434.21,360.82v21.45h-151.06c-4.95,0-9.36,1.09-12.42,2.8H42.57v-24.25h391.64Z"/><rect class="cls-1" x="42.57" y="301.14" width="391.64" height="24.24"/><rect class="cls-1" x="42.57" y="241.47" width="391.64" height="24.24"/><rect class="cls-1" x="42.57" y="181.68" width="391.64" height="23.83"/><rect class="cls-1" x="42.57" y="526.31" width="223.79" height="21.01"/><rect class="cls-1" x="42.57" y="470.18" width="223.79" height="24.24"/><rect class="cls-1" x="42.57" y="416.5" width="223.79" height="24.24"/></g><g><rect class="cls-4" x="42.57" y="181.68" width="391.64" height="23.83"/><rect class="cls-4" x="42.57" y="241.47" width="391.64" height="24.24"/><rect class="cls-4" x="42.57" y="301.14" width="391.64" height="24.24"/><rect class="cls-4" x="42.57" y="526.31" width="223.79" height="21.01"/><rect class="cls-4" x="42.57" y="470.18" width="223.79" height="24.24"/><rect class="cls-4" x="42.57" y="416.5" width="223.79" height="24.24"/><path class="cls-4" d="m270.73,385.07H42.57v-24.25h391.64v21.45h-151.06c-4.95,0-9.36,1.09-12.42,2.8Z"/></g></g></g></g></svg>