<?xml version="1.0" encoding="UTF-8"?><svg id="Layer_2" xmlns="http://www.w3.org/2000/svg" viewBox="0 0 948.64 725.57"><defs><style>.cls-1{fill:#fff;}.cls-2,.cls-3{fill:#dcff03;}.cls-3,.cls-4{stroke:#000;stroke-miterlimit:10;stroke-width:18px;}.cls-4{fill:none;}</style></defs><g id="Layer_1-2"><g><g><g><path class="cls-1" d="m867.78,70.54c7.1,0,12.68,6.35,12.68,14.43s-5.58,14.44-12.68,14.44h-150.16c-6.97,0-12.67-6.5-12.67-14.44s5.7-14.43,12.67-14.43h150.16Z"/><path class="cls-1" d="m863.22,143.59c6.97,0,12.68,6.49,12.68,14.43s-5.71,14.44-12.68,14.44h-60.32c-6.97,0-12.67-6.5-12.67-14.44s5.7-14.43,12.67-14.43h60.32Z"/><path class="cls-1" d="m753.6,143.59c6.97,0,12.68,6.49,12.68,14.43s-5.71,14.44-12.68,14.44h-162.84c-6.97,0-12.67-6.5-12.67-14.44s5.7-14.43,12.67-14.43h162.84Z"/><path class="cls-1" d="m672.51,70.54c6.97,0,12.68,6.35,12.68,14.43s-5.71,14.44-12.68,14.44h-75.78c-6.97,0-12.67-6.5-12.67-14.44s5.7-14.43,12.67-14.43h75.78Z"/><path class="cls-2" d="m79.55,71.13c0-34.31,27.82-62.13,62.13-62.13h735.83c34.31,0,62.13,27.82,62.13,62.13v367.26c0,34.31-27.82,62.13-62.13,62.13H141.68c-34.31,0-62.13-27.82-62.13-62.13V71.13Zm800.91,13.84c0-8.08-5.58-14.43-12.68-14.43h-150.16c-6.97,0-12.67,6.35-12.67,14.43s5.7,14.44,12.67,14.44h150.16c7.1,0,12.68-6.49,12.68-14.44Zm-4.56,73.05c0-7.94-5.71-14.43-12.68-14.43h-60.32c-6.97,0-12.67,6.49-12.67,14.43s5.7,14.44,12.67,14.44h60.32c6.97,0,12.68-6.49,12.68-14.44Zm-109.61,0c0-7.94-5.71-14.43-12.68-14.43h-162.84c-6.97,0-12.67,6.49-12.67,14.43s5.7,14.44,12.67,14.44h162.84c6.97,0,12.68-6.49,12.68-14.44Zm-81.1-73.05c0-8.08-5.71-14.43-12.68-14.43h-75.78c-6.97,0-12.67,6.35-12.67,14.43s5.7,14.44,12.67,14.44h75.78c6.97,0,12.68-6.5,12.68-14.44Z"/></g><g><path class="cls-4" d="m141.68,9h735.83c34.29,0,62.13,27.84,62.13,62.13v367.27c0,34.29-27.84,62.13-62.13,62.13H141.68c-34.29,0-62.13-27.84-62.13-62.13V71.13c0-34.29,27.84-62.13,62.13-62.13Z"/><path class="cls-4" d="m596.73,70.54h75.78c6.97,0,12.68,6.35,12.68,14.43s-5.71,14.44-12.68,14.44h-75.78c-6.97,0-12.67-6.5-12.67-14.44s5.7-14.43,12.67-14.43Z"/><path class="cls-4" d="m753.6,172.46h-162.84c-6.97,0-12.67-6.5-12.67-14.44s5.7-14.43,12.67-14.43h162.84c6.97,0,12.68,6.49,12.68,14.43s-5.71,14.44-12.68,14.44Z"/><path class="cls-4" d="m863.22,172.46h-60.32c-6.97,0-12.67-6.5-12.67-14.44s5.7-14.43,12.67-14.43h60.32c6.97,0,12.68,6.49,12.68,14.43s-5.71,14.44-12.68,14.44Z"/><path class="cls-4" d="m867.78,99.42h-150.16c-6.97,0-12.67-6.5-12.67-14.44s5.7-14.43,12.67-14.43h150.16c7.1,0,12.68,6.35,12.68,14.43s-5.58,14.44-12.68,14.44Z"/></g></g><path class="cls-3" d="m672.81,278.72c3.43-6.86.82-15.09-5.9-18.52-6.86-3.43-15.09-.69-18.52,6.04l-81.89,160.9c-7.54-4.39-16.19-6.58-25.1-6.58-11.25,0-21.81,3.29-30.32,9.74l-76.68,55.69-81.34-105.07c-15.77-20.3-39.37-31.82-64.61-31.82h-102.06c-25.65,0-50.07,12.21-65.43,32.78l-100.68,133.6c-17.83,23.45-14.13,56.65,8.23,75.71l75.85,64.74v38.13c0,12.48,10.15,22.49,22.63,22.49h212.2c12.48,0,22.63-10.01,22.63-22.49v-136.76s20.86,26.34,20.86,26.34c11.11,13.99,27.16,22.63,45.13,24.41,17.83,1.92,35.12-3.57,48.83-14.95l97.8-81.48c18.93-15.77,23.59-42.93,12.35-64.06l86.01-168.86Z"/><path class="cls-3" d="m357.32,235.24c0-51.71-42.11-93.82-93.95-93.82s-93.82,42.11-93.82,93.82,42.11,93.95,93.82,93.95c51.85,0,93.95-42.11,93.95-93.95h0Z"/></g></g></svg>