<?xml version="1.0" encoding="UTF-8"?><svg id="Layer_2" xmlns="http://www.w3.org/2000/svg" viewBox="0 0 729.74 727.15"><defs><style>.cls-1{fill:#3072f6;}</style></defs><g id="Layer_2-2"><path d="m729.49,333.3v383.75c0,2.36-.95,4.6-2.6,6.28-1.68,1.65-3.92,2.6-6.28,2.6h-128.78c-2.36,0-4.6-.95-6.26-2.6-1.67-1.68-2.59-3.92-2.59-6.28v-383.75c0-4.9,3.95-8.88,8.85-8.88h128.78c2.36,0,4.6.92,6.28,2.6s2.6,3.92,2.6,6.28Zm-17.73,374.9v-366.05h-111.05v366.05h111.05Z"/><rect class="cls-1" x="600.71" y="342.15" width="111.05" height="366.05"/><path d="m536.23,525.2v191.85c0,2.36-.94,4.6-2.6,6.28-1.67,1.65-3.92,2.6-6.27,2.6h-128.79c-2.35,0-4.6-.95-6.28-2.6-1.65-1.68-2.6-3.92-2.6-6.28v-191.85c0-4.87,3.98-8.85,8.88-8.85h128.79c2.35,0,4.6.92,6.27,2.6,1.66,1.65,2.6,3.92,2.6,6.25Zm-17.75,183v-174.12h-111.03v174.12h111.03Z"/><rect class="cls-1" x="407.45" y="534.08" width="111.03" height="174.12"/><path d="m457.63,84.34c3.5,1.3,5.8,4.6,5.77,8.33,0,3.66-2.3,6.96-5.77,8.23h.03l-77.79,29.18v91c0,41.6-74.32,60.22-148.03,60.22-28.8.27-57.49-2.95-85.5-9.58v24.85c16.02,4.44,26.33,20.03,24.09,36.54-2.25,16.48-16.33,28.77-32.97,28.77s-30.72-12.29-32.94-28.77c-2.25-16.51,8.04-32.1,24.09-36.54l-.03-.03v-30.23c-36.81-13.4-44.88-31.83-44.88-45.23v-91L6.02,100.9c-3.44-1.27-5.74-4.57-5.77-8.23,0-3.73,2.3-7.03,5.77-8.33L228.73.78c2-.7,4.19-.7,6.19,0l222.71,83.56Zm-225.79,82.39l197.42-74.08L231.84,18.59,34.42,92.67l102.42,38.41,53.21-27.15c-2.06-3.41-3.14-7.3-3.19-11.26h.02c0-17.02,19.76-30.34,44.96-30.34s44.96,13.4,44.96,30.34-19.76,30.24-44.96,30.24c-9.55.11-18.97-2.06-27.5-6.31v.03l-44.96,22.87,72.46,27.23Zm130.27,54.34v-84.34l-127.18,47.72c-2.01.7-4.2.7-6.2,0l-82.39-30.85v99.68c27.9,7.2,56.67,10.67,85.5,10.29,73.08,0,130.27-18.7,130.27-42.5Zm-129.91-115.89c16.59,0,27.23-7.37,27.23-12.51s-10.91-12.61-27.58-12.58c-16.68,0-27.23,7.44-27.23,12.58s10.99,12.51,27.58,12.51Zm-88.78,237.57c5.79-2.41,9.58-8.07,9.58-14.35-.05-8.55-6.98-15.46-15.54-15.51-6.28,0-11.93,3.79-14.34,9.58-2.38,5.79-1.06,12.48,3.38,16.92s11.1,5.76,16.92,3.36Zm-14.81-95.5v-100.31l-27.15-10.21v84.34h0c0,9.78,10.1,18.63,27.15,26.18Z"/><path class="cls-1" d="m429.26,92.65l-197.42,74.08-72.46-27.23,44.96-22.87v-.03c8.53,4.25,17.95,6.42,27.5,6.31,25.2,0,44.96-13.32,44.96-30.24s-19.79-30.34-44.96-30.34-44.96,13.32-44.96,30.34h-.02c.05,3.96,1.13,7.85,3.19,11.26l-53.21,27.15-102.42-38.41L231.84,18.59l197.42,74.06Z"/><path class="cls-1" d="m362.11,136.73v84.34c0,23.8-57.19,42.5-130.27,42.5-28.83.38-57.6-3.09-85.5-10.29v-99.68l82.39,30.85c2,.7,4.19.7,6.2,0l127.18-47.72Z"/><path d="m343.06,462.16v254.89c0,2.36-.95,4.6-2.6,6.28-1.67,1.65-3.92,2.6-6.28,2.6h-128.86c-2.36,0-4.6-.95-6.28-2.6-1.65-1.68-2.6-3.92-2.6-6.28v-254.89c0-4.9,3.98-8.87,8.88-8.87h128.86c2.36,0,4.61.94,6.28,2.59,1.65,1.65,2.6,3.93,2.6,6.28Zm-17.72,246.04v-237.19h-111.14v237.19h111.14Z"/><rect class="cls-1" x="214.2" y="471.01" width="111.14" height="237.19"/><path class="cls-1" d="m259.43,92.67c0,5.14-10.64,12.51-27.23,12.51s-27.58-7.37-27.58-12.51,10.55-12.58,27.23-12.58c16.67-.03,27.58,7.41,27.58,12.58Z"/><path class="cls-1" d="m153,328.4c0,6.28-3.79,11.94-9.58,14.35-5.82,2.4-12.48,1.08-16.92-3.36s-5.76-11.13-3.38-16.92c2.41-5.79,8.06-9.58,14.34-9.58,8.56.05,15.49,6.96,15.54,15.51Z"/><path d="m148.72,589.24v128.78c0,2.36-.92,4.63-2.6,6.28-1.65,1.65-3.89,2.6-6.25,2.6H11.09c-2.36,0-4.6-.95-6.28-2.6-1.65-1.65-2.6-3.92-2.6-6.28v-128.78c0-4.9,3.98-8.85,8.88-8.85h128.78c2.36,0,4.6.92,6.25,2.59,1.68,1.65,2.6,3.9,2.6,6.26Zm-17.73,119.93v-111.06H19.96l-.02,111.06h111.05Z"/><polygon class="cls-1" points="130.99 598.11 130.99 709.17 19.94 709.17 19.96 598.11 130.99 598.11"/><path class="cls-1" d="m128.61,146.94v100.31c-17.05-7.55-27.15-16.4-27.15-26.17h0v-84.35l27.15,10.21Z"/></g></svg>
