<?xml version="1.0" encoding="UTF-8"?><svg id="Layer_2" xmlns="http://www.w3.org/2000/svg" viewBox="0 0 1156.83 856.8"><defs><style>.cls-1{fill:#fff;}.cls-2,.cls-3{fill:#dcff03;}.cls-3,.cls-4{stroke:#000;stroke-miterlimit:10;stroke-width:18px;}.cls-4{fill:none;}</style></defs><g id="Layer_1-2"><g><path class="cls-3" d="m1068.6,9h-493.2c-44.4,0-80.4,36-80.4,80.4v39.6h88.8c81.6,0,147.6,66,147.6,147.6v225.6h92.4c34.8,45.6,98.4,120,174,157.2,6,2.4,10.8,3.6,16.8,3.6,9.6,0,20.4-3.6,27.6-10.8,12-12,15.6-28.8,8.4-44.4-18-39.6-22.8-76.8-24-105.6h40.8c44.4,0,80.4-36,80.4-81.6V89.4c1.2-44.4-34.8-80.4-79.2-80.4h0Z"/><g><g><path class="cls-2" d="m582.61,194.99c44.39,0,81.59,36,80.39,81.61v330c0,44.39-36,80.39-80.4,80.39h-248.4c-34.8,45.6-98.4,120-174,157.2-6,2.41-12,3.61-18,3.61-10.8,0-20.4-3.61-27.6-10.81-12-12-15.6-28.79-8.4-44.39,18-39.6,22.8-76.8,24-105.6h-40.8c-44.4,0-80.4-36-80.4-80.4v-331.2c0-44.4,36-80.4,80.4-80.4h493.21Zm-110.41,224.4c10.8-8.4,4.8-24-12.01-25.2l-73.2-6c-4.8,0-9.6-3.6-12-8.4l-28.8-68.4c-4.8-12-21.6-12-26.4,0l-28.8,68.4c-2.4,4.8-6,8.4-12,8.4l-73.2,6c-13.2,1.2-18,16.8-8.4,25.2l56.4,48c4.8,3.6,6,9.6,4.8,14.4l-16.8,72c-3.59,12,10.8,22.8,21.6,15.6l63.61-38.4c4.8-2.4,10.8-2.4,15.6,0l63.6,38.4c10.8,7.2,24-3.6,21.6-15.6l-16.8-72c-1.2-4.8,1.2-10.8,4.8-14.4l56.4-48Z"/><path class="cls-1" d="m460.19,394.2c16.81,1.2,22.81,16.8,12.01,25.2l-56.4,48c-3.6,3.6-6,9.6-4.8,14.4l16.8,72c2.4,12-10.8,22.8-21.6,15.6l-63.6-38.4c-4.8-2.4-10.8-2.4-15.6,0l-63.61,38.4c-10.8,7.2-25.19-3.6-21.6-15.6l16.8-72c1.2-4.8,0-10.8-4.8-14.4l-56.4-48c-9.6-8.4-4.8-24,8.4-25.2l73.2-6c6,0,9.6-3.6,12-8.4l28.8-68.4c4.8-12,21.6-12,26.4,0l28.8,68.4c2.4,4.8,7.2,8.4,12,8.4l73.2,6Z"/></g><g><path class="cls-4" d="m582.6,195H89.4c-44.4,0-80.4,36-80.4,80.4v331.2c0,44.4,36,80.4,80.4,80.4h40.8c-1.2,28.8-6,66-24,105.6-7.2,15.6-3.6,32.39,8.4,44.39,7.2,7.2,16.8,10.81,27.6,10.81,6,0,12-1.2,18-3.61,75.6-37.2,139.2-111.6,174-157.2h248.4c44.4,0,80.4-36,80.4-80.39v-330c1.2-45.61-36-81.61-80.39-81.61h-.01Z"/><path class="cls-4" d="m472.2,419.4l-56.4,48c-3.6,3.6-6,9.6-4.8,14.4l16.8,72c2.4,12-10.8,22.8-21.6,15.6l-63.6-38.4c-4.8-2.4-10.8-2.4-15.6,0l-63.61,38.4c-10.8,7.2-25.19-3.6-21.6-15.6l16.8-72c1.2-4.8,0-10.8-4.8-14.4l-56.4-48c-9.6-8.4-4.8-24,8.4-25.2l73.2-6c6,0,9.6-3.6,12-8.4l28.8-68.4c4.8-12,21.6-12,26.4,0l28.8,68.4c2.4,4.8,7.2,8.4,12,8.4l73.2,6c16.81,1.2,22.81,16.8,12.01,25.2Z"/></g></g></g></g></svg>