<svg xmlns="http://www.w3.org/2000/svg" viewBox="0 0 92.5 87.63">
  <path fill="#3072f6" d="M28.93 56.38H2.25V10.54h3.38v40.11c0 .3.14.59.37.78s.53.27.82.21a82.19 82.19 0 0 1 19.86-1.42c.44 2.15 1.2 4.23 2.25 6.16Zm61.32-45.84v45.84h-20.7l-.09-.09c1.03-1.93 1.78-4 2.22-6.15 4.7.09 9.39.59 14 1.5.29.06.59-.02.82-.21a1 1 0 0 0 .37-.78V10.54h3.38Z"/>
  <path fill="#3072f6" d="M70.16 45.46a21.02 21.02 0 0 1-20.99 21.01 21 21 0 1 1 20.99-21.01Zm-4.95.03a16.04 16.04 0 0 0-27.4-11.36 16.05 16.05 0 1 0 27.4 11.36Z"/>
  <path fill="#3072f6" d="M88.45 78.11c1.35 1.35.39 3.73-1.27 5.39s-4 2.62-5.39 1.26l-20-20a23.18 23.18 0 0 0 6.65-6.66l20.01 20.01Z"/>
  <path fill="#e2fc52" d="M59.11 35.54a14 14 0 0 1 .08 19.8l-.08.08a14.05 14.05 0 1 1 0-19.88Z"/>
  <path fill="#ec5f58" d="M84.87 3.64v45.81a85.61 85.61 0 0 0-12.88-1.33A22.94 22.94 0 0 0 47.25 22.6V5.54a80.5 80.5 0 0 1 37.62-1.9ZM26.18 45.48c0 .9.06 1.8.18 2.69-1.17 0-2.37-.08-3.61-.08-5.07 0-10.13.45-15.12 1.36V3.64a80.64 80.64 0 0 1 37.62 1.88v17.32a22.94 22.94 0 0 0-19.07 22.64Z"/>
  <path d="M59.19 55.34a14.05 14.05 0 1 0-.08.08l.08-.08Zm-21.38 1.5a16.05 16.05 0 1 1 22.7-22.71 16.05 16.05 0 0 1-22.7 22.71Z"/>
  <path d="M90.25 56.38V10.54h-3.38v40.11a1 1 0 0 1-.37.78.98.98 0 0 1-.82.21 80.26 80.26 0 0 0-14-1.5 22.75 22.75 0 0 1-2.22 6.15l.09.09h20.7ZM84.87 3.64a80.5 80.5 0 0 0-37.62 1.9V22.6a22.94 22.94 0 0 1 24.74 25.52c4.32.12 8.63.56 12.88 1.33V3.64ZM61.79 64.76l20 20c1.39 1.36 3.73.4 5.39-1.26s2.62-4.04 1.27-5.39L68.44 58.1c-1.74 2.65-4 4.92-6.65 6.66Zm-32.86-8.38a22.23 22.23 0 0 1-2.25-6.16 82.19 82.19 0 0 0-19.86 1.42c-.29.06-.59-.02-.82-.21s-.37-.48-.37-.78V10.54H2.25v45.84h26.68Zm-2.75-10.9a22.94 22.94 0 0 1 19.07-22.64V5.52A80.64 80.64 0 0 0 7.63 3.64v45.81a84.27 84.27 0 0 1 15.12-1.36c1.24 0 2.44.08 3.61.08-.12-.89-.18-1.79-.18-2.69Zm33.8 20.25a22.99 22.99 0 0 1-29.83-7.35H1.25a1 1 0 0 1-1-1V9.54a1 1 0 0 1 1-1h4.38v-5.7a1 1 0 0 1 .81-1c21.02-4.13 37.2 1 39.81 1.91 2.61-.91 18.79-6.04 39.81-1.91a1 1 0 0 1 .81 1v5.7h4.38a1 1 0 0 1 1 1v47.84a1 1 0 0 1-1 1h-19.7l18.32 18.26c2.38 2.39 1.01 5.94-1.27 8.22a7.91 7.91 0 0 1-5.22 2.52 4.13 4.13 0 0 1-3-1.25l-20.4-20.4ZM49.15 24.47a21 21 0 1 0 .03 42 21 21 0 0 0-.03-42Z"/>
</svg>
