<svg xmlns="http://www.w3.org/2000/svg" viewBox="64.2 60 1071.57 1079.98">
  <path fill="#ec5f58" d="M1110.2 594.72H988.52a26.29 26.29 0 0 0 0 52.56h121.68a26.29 26.29 0 0 0 0-52.56zM946.44 458.16c4.75.1 9.44-1.1 13.56-3.48l105.36-60.84A26.54 26.54 0 0 0 1038.6 348l-105.36 61.2a26.28 26.28 0 0 0 13.2 49.08zM901.2 156a26.28 26.28 0 0 0-36 6.84L796.56 263.4A26.28 26.28 0 1 0 840 292.8L908.16 192a26.28 26.28 0 0 0-6.96-36zM381.84 304.2a26.26 26.26 0 0 0 26.14-23.05 26.27 26.27 0 0 0-4.42-18.1l-68.64-100.57a26.31 26.31 0 0 0-37.06-7.81 26.28 26.28 0 0 0-6.38 37.33L360 292.8a26.28 26.28 0 0 0 21.84 11.4zm-116.16 105L160.2 348a26.27 26.27 0 0 0-26.28 45.48l105.36 60.84a26.29 26.29 0 1 0 26.28-45.48zm799.22 433.92-104.88-60.84A26.5 26.5 0 0 0 933.26 828l105.36 60.84a26.27 26.27 0 0 0 26.28-45.48zm-825.5-60.84-105.36 60.84a26.27 26.27 0 1 0 26.28 45.48L265.68 828a26.29 26.29 0 0 0-26.28-45.48zM237.72 621a26.27 26.27 0 0 0-26.28-26.28H89.76a26.29 26.29 0 0 0 0 52.56h121.68A26.28 26.28 0 0 0 237.72 621zm361.32-386.76a26.26 26.26 0 0 0 26.28-26.28V86.28a26.28 26.28 0 1 0-52.56 0v121.68a26.28 26.28 0 0 0 26.28 26.28zM703.56 939H494.52a26.28 26.28 0 0 0 0 52.56h209.04a26.29 26.29 0 1 0 0-52.56zM544.8 1095.7v14.4a29.88 29.88 0 0 0 29.76 29.88h42.48a29.88 29.88 0 0 0 29.76-29.76v-13.92a64.8 64.8 0 0 0 61.2-64.32H489.48a64.78 64.78 0 0 0 55.32 63.72zm54.24-752.74c-145.92 0-264 121.44-264 271.08a276 276 0 0 0 19.32 101.76c1.6 4 3.28 8 5.04 12a272.14 272.14 0 0 0 45.36 69.84l67.08 103.08h254.64l67.08-103.08a272.12 272.12 0 0 0 50.4-81.84 276 276 0 0 0 19.32-101.76c0-149.76-118.32-271.08-264.24-271.08zm-12 99.84a175.42 175.42 0 0 0-78.72 24c-50.28 29.88-76.44 84-77.76 159.24a26.28 26.28 0 0 1-26.28 25.8 26.27 26.27 0 0 1-25.8-26.76c2.04-120 58.68-177.72 105.84-204.84a226.34 226.34 0 0 1 103.2-29.64 26.27 26.27 0 1 1 0 52.56z"/>
</svg>
