<svg xmlns="http://www.w3.org/2000/svg" viewBox="0 0 1318.08 293.91">
   <path fill="#fff" d="M13.37 280.43h393.26V13.4H13.37v267.04" />
   <path fill="#2a3c93" d="M20.93 272.8h378.14V20.71H20.93v252.1" />
   <path fill="#fbca07"
      d="m201.95 75.64 7.97-5.83 7.98 5.83-3.03-9.42 8.1-5.82h-9.99l-3.06-9.53-3.05 9.54-9.99-.01 8.1 5.82-3.03 9.42m-41.3 11.09 7.98-5.82 7.98 5.82-3.04-9.42 8.1-5.82h-9.99l-3.05-9.54-3.06 9.55h-9.98l8.1 5.81-3.04 9.42m-22.23 5.5-3.06 9.55h-9.98l8.1 5.81-3.04 9.42 7.98-5.82 7.98 5.82-3.04-9.42 8.1-5.82h-9.98l-3.06-9.54m-11.08 60.2 7.97 5.82-3.03-9.41 8.1-5.83h-9.99l-3.05-9.54-3.06 9.56-9.99-.02 8.1 5.83-3.03 9.41 7.98-5.82m14.14 31.95-3.06-9.55-3.06 9.56-9.98-.01 8.1 5.82-3.04 9.42 7.98-5.84 7.98 5.84-3.04-9.42 8.1-5.82h-9.98m30.27 30.27-3.06-9.53-3.05 9.54-10-.01 8.1 5.82-3.02 9.42 7.97-5.83 7.98 5.83-3.03-9.42 8.1-5.82h-10m41.25 10.97-3.06-9.55-3.05 9.56-10-.01 8.1 5.82-3.02 9.42 7.97-5.83 7.98 5.83-3.04-9.42 8.1-5.82H213m41.23-10.97-3.06-9.53-3.06 9.54-9.98-.01 8.1 5.82-3.03 9.42 7.97-5.83 7.98 5.83-3.04-9.42 8.1-5.82h-9.98m30.27-30.27-3.05-9.55-3.07 9.56-9.98-.01 8.1 5.82-3.03 9.42 7.98-5.84 7.97 5.84-3.04-9.42 8.1-5.82h-9.97m20.95-41.48h-10l-3.06-9.54-3.05 9.55-9.99-.01 8.1 5.82-3.03 9.42 7.97-5.84 7.98 5.84-3.03-9.42 8.1-5.82m-31.98-26.01 7.97-5.83 7.98 5.83-3.04-9.42 8.1-5.81h-9.97l-3.07-9.54-3.06 9.55-9.98-.01 8.1 5.8-3.03 9.43m-22.18-54.93-3.05 9.55-10-.02 8.1 5.83-3.03 9.42 7.99-5.83 7.97 5.83-3.03-9.42 8.1-5.83h-10l-3.05-9.53" />
   <text fill="#2a3c93" font-family="Arial" font-size="65" font-weight="700"
      transform="translate(447.38 115.6) scale(1.33333)">
      <tspan x="0" y="0">Co-funded by</tspan>
      <tspan x="0" y="78">the European Union</tspan>
   </text>
</svg>
