<svg xmlns="http://www.w3.org/2000/svg" viewBox="0 0 1039.31 222.6">
   <path fill="#2d49a3" d="M1039.3 222.6V0H708.87v222.6h330.43"/>
   <path fill="#f3f020" d="m956.94 107.72-3.45-.07-5.1-.1-1.67-4.54-1.08-2.9-1.06 2.9-1.66 4.54-5.1.1-3.44.07 2.81 2.03 4.02 2.88-1.46 4.55-1 3.1 2.71-1.8 4.18-2.76 4.23 2.77 2.68 1.8-.98-3.1-1.45-4.56 4-2.88 2.82-2.03"/>
   <path fill="none" stroke="#f3f020" stroke-width="1.47" d="m956.94 107.72-3.45-.07-5.1-.1-1.67-4.54-1.08-2.9-1.06 2.9-1.66 4.54-5.1.1-3.44.07 2.81 2.03 4.02 2.88-1.46 4.55-1 3.1 2.71-1.8 4.18-2.76 4.23 2.77 2.68 1.8-.98-3.1-1.45-4.56 4-2.88z"/>
   <path fill="#f3f020" d="m931.63 76.74-1.45 4.56-.98 3.09 2.7-1.77 4.2-2.8 4.22 2.8 2.67 1.77-.97-3.1-1.46-4.55 4-2.89 2.83-2.02-3.45-.06-5.11-.08-1.66-4.56-1.08-2.94-1.06 2.94-1.65 4.56-5.1.08-3.45.06 2.8 2.02 4 2.89"/>
   <path fill="none" stroke="#f3f020" stroke-width="1.47" d="m931.63 76.74-1.45 4.56-.98 3.09 2.7-1.77 4.2-2.8 4.22 2.8 2.67 1.77-.97-3.1-1.46-4.55 4-2.89 2.83-2.02-3.45-.06-5.11-.08-1.66-4.56-1.08-2.94-1.06 2.94-1.65 4.56-5.1.08-3.45.06 2.8 2.02z"/>
   <path fill="#f3f020" d="m912.86 45.58-1.67-4.55-1.08-2.92-1.06 2.92-1.65 4.55-5.1.09-3.47.08 2.83 2.02 4.02 2.89-1.46 4.55-1 3.1 2.71-1.77 4.18-2.8 4.22 2.8 2.7 1.76-1-3.1-1.44-4.54 4-2.9 2.82-2.01-3.43-.08-5.12-.09"/>
   <path fill="none" stroke="#f3f020" stroke-width="1.47" d="m912.86 45.58-1.67-4.55-1.08-2.92-1.06 2.92-1.65 4.55-5.1.09-3.47.08 2.83 2.02 4.02 2.89-1.46 4.55-1 3.1 2.71-1.77 4.18-2.8 4.22 2.8 2.7 1.76-1-3.1-1.44-4.54 4-2.9 2.82-2.01-3.43-.08z"/>
   <path fill="#f3f020" d="m876.54 35.95-1.67-4.53-1.08-2.93-1.04 2.93-1.67 4.53-5.1.12-3.47.05 2.83 2.03 4 2.9-1.44 4.56-1 3.08 2.7-1.77 4.2-2.8 4.22 2.8 2.68 1.77-.98-3.08-1.45-4.56 4-2.9 2.8-2.03-3.43-.05-5.1-.12"/>
   <path fill="none" stroke="#f3f020" stroke-width="1.47" d="m876.54 35.95-1.67-4.53-1.08-2.93-1.04 2.93-1.67 4.53-5.1.12-3.47.05 2.83 2.03 4 2.9-1.44 4.56-1 3.08 2.7-1.77 4.2-2.8 4.22 2.8 2.68 1.77-.98-3.08-1.45-4.56 4-2.9 2.8-2.03-3.43-.05z"/>
   <path fill="#f3f020" d="m840.54 45.58-1.67-4.55-1.05-2.92-1.06 2.92-1.67 4.55-5.1.09-3.46.05 2.8 2.04 4.03 2.88-1.45 4.55-1 3.11 2.7-1.8 4.21-2.77 4.18 2.78 2.7 1.8-.98-3.12-1.45-4.55 4-2.88 2.83-2.04-3.46-.05-5.1-.09"/>
   <path fill="none" stroke="#f3f020" stroke-width="1.47" d="m840.54 45.58-1.67-4.55-1.05-2.92-1.06 2.92-1.67 4.55-5.1.09-3.46.05 2.8 2.04 4.03 2.88-1.45 4.55-1 3.11 2.7-1.8 4.21-2.77 4.18 2.78 2.7 1.8-.98-3.12-1.45-4.55 4-2.88 2.83-2.04-3.46-.05z"/>
   <path fill="#f3f020" d="m814.33 71.4-1.64-4.53-1.07-2.91-1.08 2.91-1.65 4.54-5.1.1-3.45.06 2.81 2.03 4 2.9-1.45 4.54-.97 3.1 2.67-1.78 4.2-2.78 4.22 2.78 2.68 1.78-.98-3.1-1.45-4.55 4.02-2.89 2.8-2.03-3.45-.07-5.11-.1"/>
   <path fill="none" stroke="#f3f020" stroke-width="1.47" d="m814.33 71.4-1.64-4.53-1.07-2.91-1.08 2.91-1.65 4.54-5.1.1-3.45.06 2.81 2.03 4 2.9-1.45 4.54-.97 3.1 2.67-1.78 4.2-2.78 4.22 2.78 2.68 1.78-.98-3.1-1.45-4.55 4.02-2.89 2.8-2.03-3.45-.07z"/>
   <path fill="#f3f020" d="m806.01 118.42 2.7 1.8-.98-3.12-1.45-4.54 4-2.9 2.82-2-3.45-.08-5.1-.09-1.66-4.54-1.07-2.91-1.07 2.91-1.66 4.54-5.1.09-3.45.07 2.8 2.02 4.01 2.89-1.44 4.54-.99 3.12 2.69-1.8 4.21-2.78 4.2 2.78"/>
   <path fill="none" stroke="#f3f020" stroke-width="1.47" d="m806.01 118.42 2.7 1.8-.98-3.12-1.45-4.54 4-2.9 2.82-2-3.45-.08-5.1-.09-1.66-4.54-1.07-2.91-1.07 2.91-1.66 4.54-5.1.09-3.45.07 2.8 2.02 4.01 2.89-1.44 4.54-.99 3.12 2.69-1.8 4.21-2.78z"/>
   <path fill="#f3f020" d="m814.21 143.1-1.67-4.53-1.05-2.92-1.08 2.92-1.66 4.53-5.1.1-3.45.09 2.81 2 4 2.9-1.44 4.55-1 3.07 2.7-1.75 4.2-2.78 4.2 2.78 2.69 1.77-.99-3.09-1.42-4.54 4-2.91 2.8-2-3.45-.08-5.09-.11"/>
   <path fill="none" stroke="#f3f020" stroke-width="1.47" d="m814.21 143.1-1.67-4.53-1.05-2.92-1.08 2.92-1.66 4.53-5.1.1-3.45.09 2.81 2 4 2.9-1.44 4.55-1 3.07 2.7-1.75 4.2-2.78 4.2 2.78 2.69 1.77-.99-3.09-1.42-4.54 4-2.91 2.8-2-3.45-.08z"/>
   <path fill="#f3f020" d="m840.22 169.17-1.65-4.56-1.06-2.92-1.09 2.92-1.65 4.56-5.11.08-3.45.08 2.83 2.02 3.98 2.89-1.43 4.54-1 3.1 2.69-1.76 4.23-2.8 4.17 2.8 2.72 1.76-1-3.1-1.44-4.54 4-2.9 2.83-2.01-3.47-.08-5.1-.08"/>
   <path fill="none" stroke="#f3f020" stroke-width="1.47" d="m840.22 169.17-1.65-4.56-1.06-2.92-1.09 2.92-1.65 4.56-5.11.08-3.45.08 2.83 2.02 3.98 2.89-1.43 4.54-1 3.1 2.69-1.76 4.23-2.8 4.17 2.8 2.72 1.76-1-3.1-1.44-4.54 4-2.9 2.83-2.01-3.47-.08z"/>
   <path fill="#f3f020" d="m876.51 178.79-1.65-4.52-1.08-2.93-1.05 2.93-1.67 4.52-5.1.1-3.47.08 2.82 2.04 4.02 2.87-1.46 4.55-.97 3.1 2.68-1.78 4.2-2.8 4.2 2.8 2.7 1.78-.97-3.1-1.47-4.55 4-2.87 2.82-2.04-3.43-.08-5.12-.1"/>
   <path fill="none" stroke="#f3f020" stroke-width="1.47" d="m876.51 178.79-1.65-4.52-1.08-2.93-1.05 2.93-1.67 4.52-5.1.1-3.47.08 2.82 2.04 4.02 2.87-1.46 4.55-.97 3.1 2.68-1.78 4.2-2.8 4.2 2.8 2.7 1.78-.97-3.1-1.47-4.55 4-2.87 2.82-2.04-3.43-.08z"/>
   <path fill="#f3f020" d="m912.53 169.34-1.67-4.54-1.06-2.92-1.07 2.92-1.65 4.54-5.1.12-3.46.06 2.83 2.02 4 2.89-1.45 4.54-.98 3.1 2.68-1.76 4.2-2.8 4.2 2.8 2.68 1.76-.96-3.1-1.44-4.54 3.98-2.9 2.82-2.01-3.45-.06-5.1-.12"/>
   <path fill="none" stroke="#f3f020" stroke-width="1.47" d="m912.53 169.34-1.67-4.54-1.06-2.92-1.07 2.92-1.65 4.54-5.1.12-3.46.06 2.83 2.02 4 2.89-1.45 4.54-.98 3.1 2.68-1.76 4.2-2.8 4.2 2.8 2.68 1.76-.96-3.1-1.44-4.54 3.98-2.9 2.82-2.01-3.45-.06z"/>
   <path fill="#f3f020" d="m938.7 143.42-1.67-4.55-1.06-2.9-1.07 2.9-1.67 4.55-5.1.09-3.44.06 2.82 2.04 4 2.88-1.45 4.56-.97 3.09 2.67-1.78 4.2-2.78 4.21 2.78 2.68 1.78-.99-3.09-1.43-4.56 4-2.88 2.82-2.04-3.45-.06-5.1-.1"/>
   <path fill="none" stroke="#f3f020" stroke-width="1.47" d="m938.7 143.42-1.67-4.55-1.06-2.9-1.07 2.9-1.67 4.55-5.1.09-3.44.06 2.82 2.04 4 2.88-1.45 4.56-.97 3.09 2.67-1.78 4.2-2.78 4.21 2.78 2.68 1.78-.99-3.09-1.43-4.56 4-2.88 2.82-2.04-3.45-.06z"/>
   <path fill="#2d49a3" d="m192.68 37.71 6.31 1.6c-1.32 5.18-3.7 9.14-7.14 11.86-3.44 2.73-7.65 4.09-12.62 4.09-5.14 0-9.32-1.05-12.55-3.14a19.6 19.6 0 0 1-7.35-9.1 32.46 32.46 0 0 1-2.53-12.8c0-4.97.95-9.3 2.85-13 1.9-3.7 4.6-6.51 8.1-8.43a23.68 23.68 0 0 1 11.58-2.88c4.77 0 8.79 1.21 12.04 3.64 3.26 2.43 5.53 5.85 6.8 10.26l-6.21 1.46c-1.1-3.47-2.71-6-4.82-7.58-2.1-1.59-4.75-2.38-7.94-2.38-3.67 0-6.73.88-9.2 2.64a13.92 13.92 0 0 0-5.19 7.08 28.5 28.5 0 0 0-1.5 9.16c0 4.06.6 7.6 1.78 10.63a13.22 13.22 0 0 0 5.52 6.79c2.49 1.5 5.2 2.24 8.1 2.24 3.54 0 6.53-1.02 8.98-3.06 2.46-2.04 4.12-5.06 4.99-9.08m17.18-.55c0 4.43.97 7.74 2.9 9.94a9.29 9.29 0 0 0 7.3 3.3c2.9 0 5.32-1.1 7.25-3.31 1.93-2.22 2.9-5.6 2.9-10.13 0-4.27-.97-7.51-2.92-9.71a9.27 9.27 0 0 0-7.24-3.3 9.31 9.31 0 0 0-7.29 3.28c-1.93 2.2-2.9 5.5-2.9 9.93zm-6.02 0c0-6.4 1.78-11.14 5.34-14.23 2.97-2.56 6.6-3.84 10.87-3.84 4.76 0 8.64 1.56 11.66 4.67 3.01 3.12 4.52 7.42 4.52 12.9 0 4.46-.67 7.96-2 10.5a14.18 14.18 0 0 1-5.83 5.95 16.98 16.98 0 0 1-8.35 2.11c-4.84 0-8.75-1.55-11.73-4.65-2.99-3.1-4.48-7.57-4.48-13.41m36.98 2.96v-5.9h18v5.9h-18m25.88 14.32V24.43h-5.18v-4.56h5.18V16.2c0-2.32.2-4.04.62-5.17a7.5 7.5 0 0 1 2.98-3.7c1.42-.94 3.4-1.41 5.97-1.41 1.65 0 3.47.2 5.47.58l-.88 5.11a19.79 19.79 0 0 0-3.45-.32c-1.78 0-3.04.38-3.78 1.14-.74.76-1.1 2.18-1.1 4.26v3.2h6.73v4.55h-6.73v30.01h-5.83m39.78-.01v-5.08c-2.7 3.91-6.35 5.86-10.97 5.86-2.04 0-3.95-.39-5.72-1.17a9.4 9.4 0 0 1-3.93-2.94 11 11 0 0 1-1.81-4.35 29.61 29.61 0 0 1-.36-5.47V19.87h5.86v19.18c0 3.06.12 5.12.36 6.18a6.1 6.1 0 0 0 2.34 3.63 7.26 7.26 0 0 0 4.43 1.32c1.76 0 3.4-.45 4.95-1.35a7.5 7.5 0 0 0 3.27-3.68c.64-1.55.96-3.8.96-6.75V19.87h5.86v34.57h-5.24m14.42 0V19.87h5.27v4.92c2.54-3.8 6.2-5.7 11-5.7 2.09 0 4 .38 5.75 1.12a9.05 9.05 0 0 1 3.92 2.95 11.34 11.34 0 0 1 1.83 4.33c.21 1.09.32 2.98.32 5.7v21.25h-5.86V33.41c0-2.38-.23-4.17-.68-5.35a5.63 5.63 0 0 0-2.43-2.83 7.73 7.73 0 0 0-4.08-1.06c-2.5 0-4.65.8-6.47 2.38-1.8 1.58-2.71 4.59-2.71 9.01v18.88h-5.86m40.98-17.24c0 4.42.93 7.73 2.8 9.92 1.87 2.2 4.07 3.29 6.6 3.29a8.28 8.28 0 0 0 6.53-3.14c1.8-2.1 2.7-5.3 2.7-9.59 0-4.73-.92-8.2-2.74-10.42a8.41 8.41 0 0 0-13.27-.13c-1.75 2.13-2.62 5.48-2.62 10.06zm18.52 17.24v-4.36c-2.19 3.43-5.41 5.14-9.66 5.14-2.76 0-5.3-.76-7.6-2.27a14.98 14.98 0 0 1-5.38-6.37 22 22 0 0 1-1.9-9.39c0-3.45.57-6.58 1.72-9.39a13.61 13.61 0 0 1 5.18-6.46c2.3-1.5 4.87-2.25 7.71-2.25a11.53 11.53 0 0 1 9.54 4.75V6.72h5.83v47.72h-5.44m19.08-20.6h19.3c-.26-2.91-1-5.1-2.21-6.55a8.99 8.99 0 0 0-7.26-3.38c-2.7 0-4.95.9-6.79 2.7-1.83 1.8-2.85 4.21-3.04 7.23zm19.24 9.47 6.05.75c-.95 3.54-2.72 6.28-5.3 8.23-2.59 1.96-5.89 2.93-9.9 2.93-5.06 0-9.07-1.55-12.03-4.67-2.96-3.11-4.44-7.48-4.44-13.1 0-5.81 1.5-10.33 4.5-13.54 2.99-3.21 6.87-4.82 11.65-4.82 4.62 0 8.4 1.58 11.32 4.72 2.93 3.15 4.4 7.58 4.4 13.28 0 .35-.01.87-.04 1.57h-25.78c.22 3.8 1.3 6.7 3.23 8.72a9.59 9.59 0 0 0 7.22 3.03c2.15 0 3.98-.57 5.5-1.7 1.52-1.12 2.73-2.93 3.62-5.4m17.31-6.11c0 4.42.94 7.73 2.8 9.92 1.87 2.2 4.07 3.29 6.61 3.29a8.28 8.28 0 0 0 6.53-3.14c1.79-2.1 2.68-5.3 2.68-9.59 0-4.73-.9-8.2-2.73-10.42a8.4 8.4 0 0 0-13.26-.13c-1.75 2.13-2.63 5.48-2.63 10.06zm18.53 17.24v-4.36c-2.2 3.43-5.42 5.14-9.67 5.14-2.76 0-5.3-.76-7.6-2.27a14.97 14.97 0 0 1-5.37-6.37 21.98 21.98 0 0 1-1.9-9.39c0-3.45.57-6.58 1.72-9.39a13.6 13.6 0 0 1 5.17-6.46c2.3-1.5 4.88-2.25 7.72-2.25a11.53 11.53 0 0 1 9.54 4.75V6.72h5.82v47.72h-5.43m38.51-17.54c0 4.14.56 7.14 1.69 8.98 1.84 3.02 4.34 4.53 7.49 4.53 2.56 0 4.77-1.12 6.64-3.34 1.86-2.22 2.8-5.54 2.8-9.94 0-4.52-.9-7.85-2.69-10-1.79-2.15-3.95-3.22-6.5-3.22s-4.77 1.11-6.63 3.34c-1.87 2.22-2.8 5.44-2.8 9.65zm.06 17.54h-5.44V6.72h5.86v17.03a11.6 11.6 0 0 1 9.48-4.66c2.12 0 4.14.43 6.04 1.29 1.9.85 3.46 2.06 4.68 3.61a17.5 17.5 0 0 1 2.88 5.62c.7 2.19 1.05 4.53 1.05 7.03 0 5.92-1.47 10.5-4.4 13.73-2.93 3.24-6.44 4.85-10.55 4.85a11 11 0 0 1-9.6-5.1v4.32m31.41 13.32-.65-5.5c1.28.34 2.4.52 3.36.52 1.3 0 2.34-.22 3.12-.65a5.35 5.35 0 0 0 1.92-1.83c.37-.58.97-2.04 1.8-4.36.1-.33.27-.8.51-1.43l-13.12-34.64h6.32L535 39.9a90.7 90.7 0 0 1 2.5 8.01 78 78 0 0 1 2.4-7.88l7.4-20.15h5.86L540 55.03a69.2 69.2 0 0 1-3.3 7.84 11.6 11.6 0 0 1-3.57 4.25 8.46 8.46 0 0 1-4.82 1.35c-1.13 0-2.39-.24-3.78-.71m64.92-18.56.85 5.18a21.7 21.7 0 0 1-4.43.52c-2.12 0-3.77-.34-4.95-1a5.64 5.64 0 0 1-2.47-2.66c-.48-1.1-.72-3.4-.72-6.92v-19.9h-4.3v-4.55h4.3v-8.56l5.83-3.51v12.07h5.9v4.56h-5.9v20.22c0 1.67.1 2.74.3 3.22.22.48.55.86 1.02 1.14a3.9 3.9 0 0 0 2 .42c.65 0 1.5-.08 2.57-.23m5.73 5.24V6.72h5.86v17.12a13.1 13.1 0 0 1 10.35-4.75c2.56 0 4.79.5 6.68 1.52 1.88 1 3.24 2.4 4.05 4.18.81 1.78 1.22 4.36 1.22 7.75v21.9h-5.86v-21.9c0-2.93-.63-5.07-1.9-6.4s-3.07-2-5.4-2a9.5 9.5 0 0 0-4.89 1.35 7.62 7.62 0 0 0-3.27 3.66c-.65 1.54-.98 3.67-.98 6.38v18.91h-5.86m41.51-20.6h19.3c-.26-2.91-1-5.1-2.21-6.55a8.98 8.98 0 0 0-7.26-3.38c-2.7 0-4.96.9-6.8 2.7-1.82 1.8-2.84 4.21-3.03 7.23zm19.23 9.47 6.06.75c-.96 3.54-2.73 6.28-5.3 8.23-2.6 1.96-5.89 2.93-9.9 2.93-5.06 0-9.07-1.55-12.03-4.67-2.96-3.11-4.44-7.48-4.44-13.1 0-5.81 1.5-10.33 4.49-13.54 3-3.21 6.88-4.82 11.65-4.82 4.62 0 8.4 1.58 11.33 4.72 2.93 3.15 4.4 7.58 4.4 13.28l-.04 1.57h-25.78c.22 3.8 1.3 6.7 3.22 8.72a9.59 9.59 0 0 0 7.23 3.03c2.15 0 3.98-.57 5.5-1.7 1.52-1.12 2.72-2.93 3.61-5.4M1.5 129.11V81.39H36v5.63H7.81v14.62h26.4v5.6H7.81v16.24h29.3v5.63H1.5m43.52 0V94.54h5.27v5.24c1.35-2.45 2.59-4.07 3.73-4.85a6.5 6.5 0 0 1 3.76-1.17c1.97 0 3.98.63 6.02 1.89l-2.02 5.43a8.38 8.38 0 0 0-4.3-1.27c-1.27 0-2.42.39-3.44 1.16a6.25 6.25 0 0 0-2.18 3.2 22.8 22.8 0 0 0-.98 6.84v18.1h-5.86m44.34-17.35c-2.13.87-5.32 1.6-9.57 2.21-2.41.35-4.12.74-5.12 1.18a5.08 5.08 0 0 0-1.35 8.59c1.19 1.04 2.92 1.56 5.2 1.56 2.25 0 4.26-.5 6.02-1.48a9.13 9.13 0 0 0 3.87-4.05c.63-1.32.95-3.28.95-5.86zm.48 13.09a21.82 21.82 0 0 1-6.26 3.9 18.1 18.1 0 0 1-6.46 1.14c-3.8 0-6.72-.93-8.76-2.78A9.18 9.18 0 0 1 65.3 120a9.56 9.56 0 0 1 4.18-8 14.27 14.27 0 0 1 4.22-1.93c1.15-.3 2.88-.6 5.2-.88 4.74-.57 8.22-1.24 10.46-2.02l.03-1.53c0-2.39-.56-4.07-1.66-5.04-1.5-1.33-3.72-2-6.68-2-2.75 0-4.79.5-6.1 1.46-1.31.96-2.28 2.67-2.91 5.12l-5.73-.78a14.2 14.2 0 0 1 2.57-5.94c1.2-1.5 2.92-2.67 5.18-3.48a23.1 23.1 0 0 1 7.84-1.22c2.95 0 5.35.35 7.2 1.04 1.84.7 3.2 1.57 4.06 2.62a9.22 9.22 0 0 1 1.83 3.99c.2 1 .29 2.8.29 5.4v7.81c0 5.45.12 8.9.37 10.34.25 1.44.75 2.83 1.49 4.15h-6.12a12.5 12.5 0 0 1-1.18-4.26m12.18-6.05 5.8-.92c.32 2.32 1.22 4.1 2.71 5.34 1.49 1.24 3.57 1.85 6.23 1.85 2.7 0 4.7-.54 6-1.64a4.91 4.91 0 0 0 1.95-3.86c0-1.32-.58-2.36-1.73-3.12-.8-.52-2.8-1.18-5.99-1.99-4.3-1.08-7.27-2.02-8.93-2.81a8.67 8.67 0 0 1-3.78-3.3 8.72 8.72 0 0 1-1.29-4.63 8.9 8.9 0 0 1 1.06-4.28 9.48 9.48 0 0 1 2.88-3.27c.92-.68 2.16-1.24 3.73-1.71 1.57-.47 3.26-.7 5.06-.7 2.71 0 5.1.39 7.15 1.17a9.73 9.73 0 0 1 4.54 3.17 12.42 12.42 0 0 1 2.02 5.36l-5.73.78a6.26 6.26 0 0 0-2.26-4.17c-1.25-1-3.02-1.5-5.3-1.5-2.69 0-4.6.45-5.76 1.34-1.15.9-1.72 1.93-1.72 3.13 0 .76.24 1.44.72 2.05a5.16 5.16 0 0 0 2.24 1.56 90 90 0 0 0 5.18 1.5 72.28 72.28 0 0 1 8.67 2.71 8.82 8.82 0 0 1 3.86 3.08 8.6 8.6 0 0 1 1.4 5.01c0 1.96-.57 3.8-1.71 5.52a11.03 11.03 0 0 1-4.93 4 17.93 17.93 0 0 1-7.3 1.42c-4.49 0-7.9-.93-10.26-2.8-2.36-1.86-3.86-4.63-4.51-8.3m35.68 10.32V94.54h5.24v4.85a12.17 12.17 0 0 1 10.48-5.63c2.56 0 4.66.53 6.3 1.6a8.54 8.54 0 0 1 3.46 4.45c2.74-4.03 6.3-6.05 10.68-6.05 3.43 0 6.07.95 7.91 2.85 1.84 1.9 2.77 4.82 2.77 8.77v23.73h-5.83v-21.78c0-2.34-.19-4.03-.57-5.06a4.92 4.92 0 0 0-2.07-2.49c-1-.63-2.17-.94-3.51-.94-2.43 0-4.45.8-6.06 2.42-1.6 1.62-2.4 4.2-2.4 7.77v20.08h-5.86v-22.46c0-2.6-.48-4.56-1.44-5.86-.95-1.3-2.51-1.95-4.68-1.95a8.5 8.5 0 0 0-4.58 1.3 7.38 7.38 0 0 0-3.04 3.8c-.63 1.68-.95 4.09-.95 7.23v17.94h-5.86m78.2 0v-5.08c-2.7 3.9-6.35 5.86-10.97 5.86a14 14 0 0 1-5.72-1.17 9.4 9.4 0 0 1-3.94-2.95 11.03 11.03 0 0 1-1.8-4.34 29.63 29.63 0 0 1-.36-5.47V94.54h5.86v19.17c0 3.06.12 5.13.36 6.19a6.1 6.1 0 0 0 2.34 3.63 7.25 7.25 0 0 0 4.43 1.32c1.76 0 3.4-.45 4.94-1.35a7.5 7.5 0 0 0 3.28-3.68c.64-1.55.96-3.8.96-6.76V94.54h5.86v34.57h-5.24m12.07-10.31 5.8-.92c.32 2.32 1.23 4.1 2.71 5.34 1.5 1.24 3.57 1.85 6.24 1.85 2.69 0 4.69-.54 5.99-1.64a4.91 4.91 0 0 0 1.95-3.86c0-1.32-.57-2.36-1.72-3.12-.8-.52-2.8-1.18-6-1.99-4.3-1.08-7.27-2.02-8.93-2.81a8.67 8.67 0 0 1-3.78-3.3 8.71 8.71 0 0 1-1.28-4.63 8.9 8.9 0 0 1 1.06-4.28 9.47 9.47 0 0 1 2.88-3.27c.9-.68 2.15-1.24 3.72-1.71 1.58-.47 3.26-.7 5.07-.7 2.7 0 5.09.39 7.14 1.17a9.74 9.74 0 0 1 4.54 3.17 12.42 12.42 0 0 1 2.02 5.36l-5.73.78a6.26 6.26 0 0 0-2.26-4.17c-1.25-1-3.01-1.5-5.3-1.5-2.68 0-4.6.45-5.75 1.34-1.15.9-1.73 1.93-1.73 3.13 0 .76.24 1.44.72 2.05a5.16 5.16 0 0 0 2.25 1.56c.58.22 2.3.72 5.17 1.5a72.36 72.36 0 0 1 8.68 2.71 8.81 8.81 0 0 1 3.85 3.08 8.6 8.6 0 0 1 1.4 5.01c0 1.96-.57 3.8-1.7 5.52a11.03 11.03 0 0 1-4.94 4 17.93 17.93 0 0 1-7.29 1.42c-4.5 0-7.91-.93-10.27-2.8-2.35-1.86-3.86-4.63-4.5-8.3m47.97 2.61v-13.1h-12.98v-5.47h12.98V89.85h5.54v13h12.99v5.46h-13v13.09h-5.53m52.22-17.32h12.33c4.08 0 6.98-.76 8.7-2.28 1.71-1.52 2.57-3.66 2.57-6.41 0-2-.5-3.7-1.52-5.13a7.07 7.07 0 0 0-3.98-2.82c-1.07-.28-3.03-.42-5.9-.42h-12.2zm-6.32 25.03V81.39h18c3.17 0 5.6.15 7.26.46 2.35.39 4.31 1.13 5.9 2.23a11.67 11.67 0 0 1 3.82 4.6 14.6 14.6 0 0 1 1.45 6.51c0 4.06-1.3 7.5-3.88 10.3-2.58 2.81-7.24 4.22-14 4.22h-12.23v19.4h-6.32m43.66 0V94.54h5.27v5.24c1.34-2.45 2.59-4.07 3.73-4.85a6.5 6.5 0 0 1 3.75-1.17c1.98 0 3.99.63 6.03 1.89l-2.02 5.43a8.38 8.38 0 0 0-4.3-1.27c-1.28 0-2.43.39-3.45 1.16a6.25 6.25 0 0 0-2.18 3.2 22.84 22.84 0 0 0-.98 6.84v18.1h-5.86m26.11-17.28c0 4.42.97 7.74 2.9 9.94a9.28 9.28 0 0 0 7.3 3.3 9.2 9.2 0 0 0 7.25-3.32c1.93-2.2 2.9-5.58 2.9-10.12 0-4.27-.98-7.51-2.92-9.72a9.26 9.26 0 0 0-7.24-3.3 9.3 9.3 0 0 0-7.3 3.29c-1.92 2.19-2.89 5.5-2.89 9.93zm-6.02 0c0-6.4 1.78-11.15 5.34-14.23 2.97-2.56 6.6-3.84 10.87-3.84 4.75 0 8.64 1.56 11.65 4.67 3.02 3.11 4.53 7.42 4.53 12.9 0 4.46-.67 7.96-2 10.5a14.17 14.17 0 0 1-5.83 5.95 16.97 16.97 0 0 1-8.35 2.11c-4.84 0-8.75-1.55-11.73-4.65-2.99-3.1-4.48-7.58-4.48-13.41m43.03-.63c0 4.54.9 7.85 2.7 9.94a8.58 8.58 0 0 0 6.78 3.12 8.7 8.7 0 0 0 6.77-3.1c1.82-2.08 2.73-5.33 2.73-9.76 0-4.23-.94-7.42-2.81-9.57a8.71 8.71 0 0 0-6.8-3.22 8.45 8.45 0 0 0-6.63 3.17c-1.82 2.12-2.74 5.26-2.74 9.43zm-4.85 20.77 5.7.85c.24 1.76.9 3.04 1.99 3.84 1.45 1.09 3.43 1.63 5.95 1.63 2.71 0 4.8-.54 6.29-1.63a8.02 8.02 0 0 0 2.99-4.55c.3-1.2.44-3.7.42-7.52a12.05 12.05 0 0 1-9.57 4.52c-4.75 0-8.43-1.71-11.03-5.14-2.6-3.43-3.9-7.54-3.9-12.34 0-3.3.59-6.34 1.78-9.13a14.33 14.33 0 0 1 5.2-6.46 14.02 14.02 0 0 1 7.99-2.28 12.4 12.4 0 0 1 10.09 4.95v-4.17h5.4v29.88c0 5.38-.55 9.2-1.64 11.45a12.04 12.04 0 0 1-5.21 5.32c-2.38 1.3-5.3 1.95-8.78 1.95-4.12 0-7.45-.93-9.99-2.78-2.54-1.86-3.76-4.65-3.68-8.39m38.09-2.86V94.54h5.27v5.24c1.35-2.45 2.59-4.07 3.73-4.85a6.5 6.5 0 0 1 3.76-1.17c1.97 0 3.98.63 6.02 1.89l-2.02 5.43a8.38 8.38 0 0 0-4.3-1.27c-1.28 0-2.42.39-3.44 1.16a6.26 6.26 0 0 0-2.18 3.2 22.8 22.8 0 0 0-.98 6.84v18.1h-5.86m44.34-17.35c-2.13.87-5.32 1.6-9.58 2.21-2.4.35-4.1.74-5.1 1.18a5.09 5.09 0 0 0-1.36 8.59c1.19 1.04 2.92 1.56 5.2 1.56 2.25 0 4.26-.5 6.02-1.48a9.12 9.12 0 0 0 3.87-4.05c.63-1.32.95-3.28.95-5.86zm.48 13.09a21.83 21.83 0 0 1-6.26 3.9 18.1 18.1 0 0 1-6.46 1.14c-3.8 0-6.72-.93-8.76-2.78a9.18 9.18 0 0 1-3.06-7.11 9.56 9.56 0 0 1 4.18-8 14.28 14.28 0 0 1 4.22-1.93c1.15-.3 2.88-.6 5.2-.88 4.74-.57 8.22-1.24 10.46-2.02l.03-1.53c0-2.39-.56-4.07-1.66-5.04-1.5-1.33-3.73-2-6.68-2-2.75 0-4.79.5-6.1 1.46-1.31.96-2.28 2.67-2.91 5.12l-5.73-.78a14.19 14.19 0 0 1 2.57-5.94c1.2-1.5 2.92-2.67 5.18-3.48a23.1 23.1 0 0 1 7.84-1.22c2.95 0 5.35.35 7.2 1.04 1.84.7 3.2 1.57 4.06 2.62a9.2 9.2 0 0 1 1.83 3.99c.2 1 .29 2.8.29 5.4v7.81c0 5.45.12 8.9.37 10.34.25 1.44.75 2.83 1.49 4.15h-6.12a12.5 12.5 0 0 1-1.18-4.26m14.53 4.26V94.54h5.23v4.85a12.17 12.17 0 0 1 10.48-5.63c2.56 0 4.66.53 6.3 1.6a8.54 8.54 0 0 1 3.47 4.45c2.73-4.03 6.3-6.05 10.68-6.05 3.43 0 6.06.95 7.9 2.85 1.85 1.9 2.77 4.82 2.77 8.77v23.73h-5.82v-21.78c0-2.34-.2-4.03-.57-5.06a4.92 4.92 0 0 0-2.07-2.49c-1-.63-2.17-.94-3.52-.94-2.43 0-4.44.8-6.05 2.42-1.6 1.62-2.4 4.2-2.4 7.77v20.08h-5.87v-22.46c0-2.6-.48-4.56-1.43-5.86-.96-1.3-2.52-1.95-4.69-1.95a8.5 8.5 0 0 0-4.57 1.3 7.39 7.39 0 0 0-3.05 3.8c-.63 1.68-.94 4.09-.94 7.23v17.94h-5.86m55.54 0V94.54h5.24v4.85a12.16 12.16 0 0 1 10.48-5.63c2.56 0 4.66.53 6.3 1.6a8.54 8.54 0 0 1 3.46 4.45c2.74-4.03 6.3-6.05 10.68-6.05 3.43 0 6.07.95 7.91 2.85 1.84 1.9 2.77 4.82 2.77 8.77v23.73h-5.83v-21.78c0-2.34-.19-4.03-.57-5.06a4.92 4.92 0 0 0-2.07-2.49c-1-.63-2.17-.94-3.51-.94-2.43 0-4.45.8-6.06 2.42-1.6 1.62-2.4 4.2-2.4 7.77v20.08h-5.86v-22.46c0-2.6-.48-4.56-1.44-5.86-.95-1.3-2.52-1.95-4.68-1.95a8.5 8.5 0 0 0-4.58 1.3 7.38 7.38 0 0 0-3.04 3.8c-.63 1.68-.95 4.09-.95 7.23v17.94h-5.85m59.96-20.61h19.3c-.26-2.9-1-5.08-2.21-6.54a8.98 8.98 0 0 0-7.26-3.38c-2.7 0-4.96.9-6.8 2.7-1.82 1.8-2.84 4.21-3.03 7.23zm19.23 9.48 6.06.75c-.96 3.53-2.73 6.28-5.3 8.23-2.6 1.96-5.89 2.93-9.9 2.93-5.06 0-9.07-1.56-12.03-4.67-2.96-3.11-4.44-7.48-4.44-13.1 0-5.82 1.5-10.33 4.49-13.54 3-3.22 6.88-4.82 11.65-4.82 4.62 0 8.4 1.57 11.33 4.72 2.93 3.15 4.4 7.57 4.4 13.28l-.04 1.56h-25.78c.22 3.8 1.3 6.7 3.22 8.73a9.59 9.59 0 0 0 7.23 3.02c2.15 0 3.98-.56 5.5-1.69s2.72-2.93 3.61-5.4M6.02 186.5c0 4.42.97 7.73 2.9 9.94a9.29 9.29 0 0 0 7.3 3.3 9.2 9.2 0 0 0 7.25-3.32c1.93-2.21 2.9-5.59 2.9-10.12 0-4.28-.97-7.52-2.92-9.72a9.26 9.26 0 0 0-7.24-3.3 9.3 9.3 0 0 0-7.3 3.28c-1.92 2.2-2.89 5.5-2.89 9.93Zm-6.02 0c0-6.4 1.78-11.15 5.34-14.23 2.97-2.56 6.6-3.84 10.87-3.84 4.75 0 8.64 1.55 11.65 4.67 3.02 3.11 4.53 7.41 4.53 12.9 0 4.45-.67 7.95-2 10.5a14.18 14.18 0 0 1-5.83 5.94 16.97 16.97 0 0 1-8.35 2.12c-4.84 0-8.75-1.55-11.73-4.66C1.49 196.8 0 192.33 0 186.5m40.66 17.28v-30.02h-5.18v-4.55h5.18v-3.68c0-2.32.2-4.05.62-5.18a7.5 7.5 0 0 1 2.97-3.7c1.43-.94 3.42-1.4 5.98-1.4 1.65 0 3.47.19 5.47.58l-.88 5.1a19.75 19.75 0 0 0-3.45-.32c-1.78 0-3.04.38-3.78 1.14-.74.76-1.1 2.18-1.1 4.27v3.19h6.73v4.55h-6.74v30.02h-5.82m48.44-5.24.84 5.17a21.5 21.5 0 0 1-4.43.52c-2.12 0-3.77-.33-4.94-1a5.65 5.65 0 0 1-2.48-2.66c-.48-1.1-.71-3.4-.71-6.92v-19.89h-4.3v-4.55h4.3v-8.56l5.82-3.52v12.08h5.9v4.55h-5.9v20.22c0 1.67.1 2.75.31 3.22.2.48.54.86 1.01 1.14.47.28 1.13.42 2 .42.65 0 1.51-.07 2.58-.22m5.72 5.24v-47.72h5.86v17.12a13.1 13.1 0 0 1 10.36-4.75c2.56 0 4.78.5 6.67 1.5a8.9 8.9 0 0 1 4.05 4.2c.82 1.77 1.22 4.35 1.22 7.74v21.9h-5.86v-21.9c0-2.93-.63-5.06-1.9-6.4-1.27-1.33-3.07-2-5.39-2a9.5 9.5 0 0 0-4.9 1.35 7.64 7.64 0 0 0-3.27 3.66c-.65 1.55-.98 3.67-.98 6.38v18.92h-5.86m41.51-20.61h19.3c-.26-2.9-1-5.09-2.21-6.54a8.98 8.98 0 0 0-7.26-3.39c-2.7 0-4.95.9-6.79 2.7-1.83 1.8-2.85 4.22-3.04 7.23zm19.24 9.47 6.05.75c-.95 3.54-2.72 6.29-5.3 8.24-2.59 1.95-5.89 2.93-9.9 2.93-5.06 0-9.07-1.56-12.03-4.67-2.96-3.12-4.44-7.48-4.44-13.1 0-5.82 1.5-10.33 4.49-13.55 3-3.2 6.88-4.81 11.65-4.81 4.63 0 8.4 1.57 11.33 4.72 2.93 3.14 4.4 7.57 4.4 13.28 0 .34-.01.87-.04 1.56H136c.22 3.8 1.3 6.7 3.23 8.72a9.6 9.6 0 0 0 7.22 3.03 8.9 8.9 0 0 0 5.5-1.7c1.52-1.12 2.73-2.92 3.62-5.4m32.81 11.14v-47.72h34.5v5.63H194.7v14.61h26.4v5.6h-26.4v16.25H224v5.63h-35.61m66.23 0v-5.08c-2.69 3.9-6.35 5.86-10.97 5.86-2.04 0-3.94-.4-5.71-1.17a9.4 9.4 0 0 1-3.94-2.95 11 11 0 0 1-1.8-4.35 29.61 29.61 0 0 1-.36-5.46V169.2h5.85v19.17c0 3.06.12 5.12.36 6.19a6.1 6.1 0 0 0 2.35 3.62 7.24 7.24 0 0 0 4.42 1.32c1.76 0 3.41-.45 4.95-1.35a7.5 7.5 0 0 0 3.27-3.68c.64-1.55.96-3.8.96-6.75V169.2h5.86v34.57h-5.24m14.36.01V169.2h5.27v5.24c1.35-2.45 2.59-4.07 3.73-4.85a6.5 6.5 0 0 1 3.76-1.17c1.97 0 3.98.63 6.02 1.88l-2.02 5.44a8.4 8.4 0 0 0-4.3-1.27c-1.28 0-2.43.39-3.45 1.16a6.24 6.24 0 0 0-2.18 3.2 22.83 22.83 0 0 0-.97 6.84v18.1h-5.86m26.1-17.27c0 4.42.97 7.73 2.9 9.94a9.29 9.29 0 0 0 7.3 3.3 9.2 9.2 0 0 0 7.25-3.32c1.93-2.21 2.9-5.59 2.9-10.12 0-4.28-.97-7.52-2.91-9.72a9.26 9.26 0 0 0-7.25-3.3 9.3 9.3 0 0 0-7.29 3.28c-1.93 2.2-2.9 5.5-2.9 9.93zm-6.02 0c0-6.4 1.78-11.15 5.34-14.23 2.97-2.56 6.6-3.84 10.87-3.84 4.76 0 8.64 1.55 11.66 4.67 3.01 3.11 4.52 7.41 4.52 12.9 0 4.45-.67 7.95-2 10.5a14.18 14.18 0 0 1-5.83 5.94 16.97 16.97 0 0 1-8.35 2.12c-4.84 0-8.75-1.55-11.73-4.66-2.99-3.1-4.48-7.57-4.48-13.4m44.57.19c0 4.45.9 7.73 2.7 9.86a8.28 8.28 0 0 0 6.54 3.2c2.6 0 4.83-1.11 6.7-3.31 1.85-2.2 2.77-5.62 2.77-10.24 0-4.4-.9-7.7-2.71-9.9-1.82-2.19-3.98-3.28-6.5-3.28-2.5 0-4.7 1.16-6.62 3.5-1.92 2.33-2.88 5.72-2.88 10.17zm-5.31 30.34V169.2h5.34v4.49a13.18 13.18 0 0 1 4.26-3.96c1.59-.87 3.5-1.31 5.77-1.31 2.95 0 5.55.76 7.8 2.27a13.99 13.99 0 0 1 5.12 6.43 23.48 23.48 0 0 1 1.72 9.1c0 3.54-.63 6.72-1.9 9.56a14.3 14.3 0 0 1-5.54 6.5 14.2 14.2 0 0 1-7.63 2.27c-1.95 0-3.7-.41-5.26-1.24a11.95 11.95 0 0 1-3.82-3.12v16.83h-5.86m41.5-33.85h19.3c-.25-2.9-1-5.09-2.2-6.54a8.98 8.98 0 0 0-7.27-3.39 9.3 9.3 0 0 0-6.78 2.7c-1.84 1.8-2.85 4.22-3.05 7.23zm19.24 9.47 6.06.75c-.96 3.54-2.73 6.29-5.3 8.24-2.6 1.95-5.9 2.93-9.9 2.93-5.06 0-9.07-1.56-12.03-4.67-2.97-3.12-4.45-7.48-4.45-13.1 0-5.82 1.5-10.33 4.5-13.55 3-3.2 6.87-4.81 11.65-4.81 4.62 0 8.4 1.57 11.33 4.72 2.93 3.14 4.4 7.57 4.4 13.28l-.04 1.56H369.5c.21 3.8 1.29 6.7 3.22 8.72a9.6 9.6 0 0 0 7.23 3.03 8.9 8.9 0 0 0 5.5-1.7c1.52-1.12 2.72-2.92 3.61-5.4m35.48-6.21c-2.12.87-5.31 1.6-9.57 2.21-2.4.35-4.1.74-5.1 1.17a5 5 0 0 0-3.12 4.69 5 5 0 0 0 1.76 3.9c1.18 1.05 2.92 1.57 5.2 1.57 2.25 0 4.26-.5 6.02-1.48a9.13 9.13 0 0 0 3.87-4.06c.63-1.32.94-3.27.94-5.85zm.5 13.08a21.8 21.8 0 0 1-6.27 3.9 18.1 18.1 0 0 1-6.46 1.15c-3.8 0-6.72-.93-8.76-2.79a9.18 9.18 0 0 1-3.06-7.1 9.56 9.56 0 0 1 4.18-8 14.23 14.23 0 0 1 4.22-1.94c1.15-.3 2.88-.6 5.2-.87 4.74-.57 8.22-1.24 10.45-2.02l.04-1.53c0-2.39-.56-4.07-1.66-5.05-1.5-1.32-3.73-1.98-6.68-1.98-2.75 0-4.79.48-6.1 1.45-1.31.96-2.28 2.67-2.91 5.12l-5.73-.78a14.2 14.2 0 0 1 2.57-5.94c1.2-1.5 2.92-2.67 5.18-3.48a23.04 23.04 0 0 1 7.84-1.22c2.95 0 5.35.34 7.2 1.04a9.5 9.5 0 0 1 4.06 2.62 9.26 9.26 0 0 1 1.83 3.99c.2 1 .29 2.8.29 5.4v7.81c0 5.45.12 8.9.37 10.34a13 13 0 0 0 1.48 4.15h-6.12c-.6-1.22-1-2.64-1.17-4.27m14.52 4.27V169.2h5.27v4.91c2.54-3.8 6.2-5.7 11-5.7 2.1 0 4 .38 5.75 1.13a9.06 9.06 0 0 1 3.92 2.94 11.32 11.32 0 0 1 1.83 4.33c.21 1.09.32 2.99.32 5.7v21.26h-5.86v-21.03c0-2.39-.22-4.17-.68-5.36a5.63 5.63 0 0 0-2.43-2.83 7.72 7.72 0 0 0-4.08-1.06c-2.5 0-4.65.8-6.46 2.38-1.81 1.59-2.72 4.6-2.72 9.02v18.88h-5.86m87.66-47.71h6.32v27.57c0 4.8-.54 8.6-1.63 11.42a13.95 13.95 0 0 1-5.87 6.89c-2.84 1.77-6.55 2.65-11.15 2.65-4.47 0-8.13-.77-10.97-2.31a13.18 13.18 0 0 1-6.1-6.7c-1.2-2.9-1.81-6.9-1.81-11.95v-27.57h6.31v27.53c0 4.15.39 7.2 1.16 9.17a8.78 8.78 0 0 0 3.97 4.54 13.79 13.79 0 0 0 6.88 1.6c4.65 0 7.96-1.06 9.93-3.16 1.98-2.1 2.96-6.16 2.96-12.15v-27.53m16.09 47.72V169.2h5.27v4.91c2.54-3.8 6.2-5.7 11-5.7 2.08 0 4 .38 5.75 1.13a9.07 9.07 0 0 1 3.92 2.94 11.34 11.34 0 0 1 1.82 4.33c.22 1.09.33 2.99.33 5.7v21.26h-5.86v-21.03c0-2.39-.23-4.17-.69-5.36a5.62 5.62 0 0 0-2.42-2.83 7.72 7.72 0 0 0-4.09-1.06c-2.5 0-4.65.8-6.46 2.38-1.81 1.59-2.72 4.6-2.72 9.02v18.88h-5.86m37.11.01V169.2h5.86v34.57Zm0-40.99v-6.73h5.86v6.73h-5.86m18.62 23.71c0 4.42.97 7.73 2.9 9.94a9.29 9.29 0 0 0 7.3 3.3 9.2 9.2 0 0 0 7.25-3.32c1.93-2.21 2.9-5.59 2.9-10.12 0-4.28-.97-7.52-2.92-9.72a9.26 9.26 0 0 0-7.24-3.3 9.3 9.3 0 0 0-7.29 3.28c-1.93 2.2-2.9 5.5-2.9 9.93zm-6.02 0c0-6.4 1.78-11.15 5.34-14.23 2.97-2.56 6.6-3.84 10.87-3.84 4.76 0 8.64 1.55 11.66 4.67 3.01 3.11 4.52 7.41 4.52 12.9 0 4.45-.67 7.95-2 10.5a14.18 14.18 0 0 1-5.83 5.94 16.97 16.97 0 0 1-8.35 2.12c-4.84 0-8.75-1.55-11.73-4.66-2.99-3.1-4.48-7.57-4.48-13.4m39.26 17.28V169.2h5.27v4.91c2.54-3.8 6.2-5.7 11-5.7 2.09 0 4 .38 5.75 1.13a9.06 9.06 0 0 1 3.92 2.94 11.32 11.32 0 0 1 1.83 4.33c.21 1.09.32 2.99.32 5.7v21.26h-5.86v-21.03c0-2.39-.23-4.17-.68-5.36a5.62 5.62 0 0 0-2.43-2.83 7.72 7.72 0 0 0-4.08-1.06c-2.5 0-4.65.8-6.46 2.38-1.81 1.59-2.72 4.6-2.72 9.02v18.88h-5.86"/>
 </svg>
